<?xml version="1.0" standalone="no"?>
<!DOCTYPE svg PUBLIC "-//W3C//DTD SVG 20010904//EN"
 "http://www.w3.org/TR/2001/REC-SVG-20010904/DTD/svg10.dtd">
<svg version="1.0" xmlns="http://www.w3.org/2000/svg"
 width="500.000000pt" height="500.000000pt" viewBox="0 0 500.000000 500.000000"
 preserveAspectRatio="xMidYMid meet">

<g transform="translate(0.000000,500.000000) scale(0.100000,-0.100000)"
fill="#000000" stroke="none">
<path d="M0 2500 l0 -2500 2500 0 2500 0 0 2500 0 2500 -2500 0 -2500 0 0
-2500z m2071 447 c76 -190 103 -267 92 -265 -10 2 -50 90 -112 245 -53 133
-99 244 -102 248 -4 3 -51 -106 -106 -242 l-99 -248 -97 -3 c-62 -2 -97 1 -97
8 0 9 196 506 207 523 2 4 50 6 106 5 l101 -3 107 -268z m1350 257 c172 -51
262 -166 261 -334 0 -72 -19 -147 -43 -177 -8 -9 -38 -13 -100 -13 l-88 0 21
47 c31 71 35 157 10 240 -30 97 -76 154 -157 194 -65 32 -68 32 -240 37 l-175
5 0 -262 0 -261 -100 0 -100 0 0 270 0 270 328 0 c273 0 338 -3 383 -16z
m-1428 -673 c38 -71 49 -103 21 -63 -12 18 -25 22 -69 22 -45 0 -55 -3 -60
-20 -3 -11 -11 -20 -17 -20 -5 0 1 19 15 43 13 23 32 57 41 75 9 17 20 32 24
32 4 0 24 -31 45 -69z m223 55 c16 -13 17 -18 6 -36 -11 -17 -10 -23 3 -36 35
-36 2 -64 -76 -64 l-59 0 0 75 0 75 53 0 c31 0 61 -6 73 -14z m272 7 l-38 -4
-2 -72 -2 -72 -3 72 -4 72 -32 4 c-18 2 2 4 43 4 41 0 58 -2 38 -4z m165 0
c-62 -4 -63 -4 -63 -33 0 -29 1 -30 53 -32 l52 -2 -52 -3 c-51 -4 -53 -5 -53
-33 0 -29 1 -29 63 -33 l62 -3 -67 -2 -68 -2 0 75 0 75 68 -2 67 -2 -62 -3z
m246 -2 c10 -6 0 -8 -27 -4 -58 8 -92 -15 -92 -62 0 -45 33 -69 89 -63 22 2
37 0 35 -4 -8 -13 -88 -8 -106 6 -42 31 -39 103 5 124 28 13 77 15 96 3z m146
-61 l64 0 4 38 c2 20 4 1 4 -43 0 -44 -2 -63 -4 -42 l-4 37 -64 0 -64 0 -4
-37 c-2 -21 -4 -2 -4 42 0 44 2 63 4 43 l4 -38 64 0z m-1985 -30 c0 -6 -75
-10 -205 -10 -130 0 -205 4 -205 10 0 6 75 10 205 10 130 0 205 -4 205 -10z
m3300 0 c0 -6 -75 -10 -205 -10 -130 0 -205 4 -205 10 0 6 75 10 205 10 130 0
205 -4 205 -10z m-2777 -222 c-9 -24 -54 -135 -99 -248 l-82 -205 -101 -3
-101 -3 19 48 c10 26 51 129 91 228 40 99 76 190 81 203 8 21 14 22 109 22
l100 0 -17 -42z m839 -208 c54 -135 98 -246 98 -247 0 -2 -24 -3 -54 -3 l-54
0 -12 73 c-18 111 -59 290 -80 353 -23 67 -24 77 -8 72 7 -3 56 -114 110 -248z
m488 14 l0 -236 203 4 c199 3 203 4 261 32 143 70 225 224 200 376 l-10 60
102 0 102 0 6 -31 c32 -160 -59 -336 -215 -414 -94 -48 -155 -55 -516 -55
l-333 0 0 250 0 250 100 0 100 0 0 -236z"/>
<path d="M1920 2540 l-20 -40 45 0 c25 0 45 2 45 5 0 12 -35 75 -42 75 -4 0
-17 -18 -28 -40z"/>
<path d="M2100 2560 c0 -29 1 -30 49 -30 31 0 53 5 61 15 21 26 -5 45 -61 45
-48 0 -49 -1 -49 -30z"/>
<path d="M2100 2490 c0 -30 1 -30 55 -30 43 0 56 4 64 18 15 29 -6 42 -66 42
-52 0 -53 0 -53 -30z"/>
</g>
</svg>
